<?xml version="1.0" encoding="utf-8"?>
<!-- Generator: Adobe Illustrator 24.3.0, SVG Export Plug-In . SVG Version: 6.00 Build 0)  -->
<svg version="1.1"
	 id="svg6451" inkscape:version="0.91 r13725" sodipodi:docname="AS_happy.svg" xmlns:cc="http://creativecommons.org/ns#" xmlns:dc="http://purl.org/dc/elements/1.1/" xmlns:inkscape="http://www.inkscape.org/namespaces/inkscape" xmlns:rdf="http://www.w3.org/1999/02/22-rdf-syntax-ns#" xmlns:sodipodi="http://sodipodi.sourceforge.net/DTD/sodipodi-0.dtd" xmlns:svg="http://www.w3.org/2000/svg"
	 xmlns="http://www.w3.org/2000/svg" xmlns:xlink="http://www.w3.org/1999/xlink" x="0px" y="0px" viewBox="0 0 78 78"
	 style="enable-background:new 0 0 78 78;" xml:space="preserve">
<style type="text/css">
	.st0{fill:#C9C9C9;}
</style>
<sodipodi:namedview  bordercolor="#666666" borderopacity="1.0" id="base" inkscape:current-layer="layer1" inkscape:cx="74.607195" inkscape:cy="65.285135" inkscape:document-units="px" inkscape:pageopacity="0.0" inkscape:pageshadow="2" inkscape:window-height="768" inkscape:window-maximized="0" inkscape:window-width="1366" inkscape:window-x="0" inkscape:window-y="0" inkscape:zoom="3.959798" pagecolor="#ffffff" showgrid="false">
	</sodipodi:namedview>
<g id="layer1" transform="translate(0,-974.40945)" inkscape:groupmode="layer" inkscape:label="Layer 1">
	<g id="g5786" transform="matrix(1.25,0,0,-1.25,-959.56604,1121.7353)">
		<g id="g52" transform="translate(816.7305,96.748)">
			<path id="path54" inkscape:connector-curvature="0" class="st0" d="M0,0l-3.5,0.3c0.2,2.3-1.3,4.3-3.3,4.5
				c-2,0.2-3.9-1.5-4.1-3.8l-3.5,0.3c0.4,4.2,4,7.3,7.9,6.9C-2.5,7.9,0.4,4.2,0,0"/>
		</g>
		<g id="g62" transform="translate(778.0898,85.8672)">
			<path id="path64" inkscape:connector-curvature="0" class="st0" d="M0,0c0.5-11.3,9.7-20.3,20.9-20.3c11.2,0,20.3,9,20.9,20.3H0z
				 M20.9-22.3C8.2-22.3-2-11.8-2,1v1h45.8V1C43.7-11.8,33.5-22.3,20.9-22.3"/>
		</g>
		<g id="g66" transform="translate(779.7441,96.6484)">
			<path id="path68" inkscape:connector-curvature="0" class="st0" d="M0,0c-0.5,4.2,2.3,8,6.2,8.4c3.9,0.4,7.5-2.6,7.9-6.8
				l-3.5-0.4c-0.3,2.3-2.1,4-4.1,3.8c-2-0.2-3.4-2.3-3.2-4.6L0,0z"/>
		</g>
		<g id="g70" transform="translate(798.9492,114.2021)">
			<path id="path72" inkscape:connector-curvature="0" class="st0" d="M0,0c-15.3,0-27.7-12.4-27.7-27.7C-27.7-43-15.3-55.4,0-55.4
				c15.3,0,27.7,12.4,27.7,27.7C27.7-12.4,15.3,0,0,0 M0-57.9c-16.6,0-30.2,13.5-30.2,30.2C-30.2-11-16.6,2.5,0,2.5
				c16.6,0,30.2-13.5,30.2-30.2C30.2-44.3,16.6-57.9,0-57.9"/>
		</g>
	</g>
</g>
</svg>
