<?xml version="1.0" encoding="utf-8"?>
<!-- Generator: Adobe Illustrator 24.3.0, SVG Export Plug-In . SVG Version: 6.00 Build 0)  -->
<svg version="1.1"
	 id="svg4482" inkscape:version="0.91 r13725" sodipodi:docname="AS_sleepy.svg" xmlns:cc="http://creativecommons.org/ns#" xmlns:dc="http://purl.org/dc/elements/1.1/" xmlns:inkscape="http://www.inkscape.org/namespaces/inkscape" xmlns:rdf="http://www.w3.org/1999/02/22-rdf-syntax-ns#" xmlns:sodipodi="http://sodipodi.sourceforge.net/DTD/sodipodi-0.dtd" xmlns:svg="http://www.w3.org/2000/svg"
	 xmlns="http://www.w3.org/2000/svg" xmlns:xlink="http://www.w3.org/1999/xlink" x="0px" y="0px" viewBox="0 0 78 78"
	 style="enable-background:new 0 0 78 78;" xml:space="preserve">
<style type="text/css">
	.st0{fill:#C9C9C9;}
	.st1{fill:none;stroke:#C9C9C9;stroke-width:1.25;stroke-miterlimit:12.5;}
</style>
<g id="g212">
	<g id="g218" transform="translate(67.542,285.3359)">
		<path id="path220" inkscape:connector-curvature="0" class="st0" d="M-28.3-280.2c-19.1,0-34.6,15.5-34.6,34.6
			c0,19.1,15.5,34.6,34.6,34.6c19.1,0,34.6-15.5,34.6-34.6C6.3-264.7-9.2-280.2-28.3-280.2 M-28.3-207.9
			c-20.8,0-37.7-16.9-37.7-37.7c0-20.8,16.9-37.7,37.7-37.7s37.7,16.9,37.7,37.7C9.4-224.8-7.5-207.9-28.3-207.9"/>
	</g>
	<g id="g222" transform="translate(52.6807,249.3086)">
		<path id="path224" inkscape:connector-curvature="0" class="st0" d="M-32-199.2c-0.5,0-0.9,0-1.4-0.1c-2.9-0.2-6.4-1.3-7.6-3.6
			l3.7-1.6c0.2,0.3,1.6,1.2,4.2,1.4c1.4,0.1,6.2,0.2,8.9-3.3l3.4,2.1C-23.2-201-27.4-199.2-32-199.2"/>
	</g>
	<g id="g226" transform="translate(80.6982,249.666)">
		<path id="path228" inkscape:connector-curvature="0" class="st0" d="M-25-200c-1.1,0-2.3-0.1-3.5-0.4c-2.7-0.6-5.8-2.1-6.5-4.6
			l3.7-1c0.1,0.4,1.3,1.4,3.7,2c1.3,0.3,5.7,1,8.7-2.1l2.8,2.6C-18.3-201.2-21.5-200-25-200"/>
	</g>
	<g id="g230" transform="translate(45.8008,257.6152)">
		<path id="path232" inkscape:connector-curvature="0" class="st0" d="M-33.8-217.8l-2.5-0.9c0-0.1,3.4-9,13.7-8.8l-0.1,2.7
			C-31.1-225-33.7-217.9-33.8-217.8"/>
	</g>
	<g id="g234" transform="translate(88.5947,257.7324)">
		<path id="path236" inkscape:connector-curvature="0" class="st0" d="M-23.1-218.1c-4.9-7.9-11.7-6.2-12-6.1l-0.7-2.4
			c0.1,0,8.9-2.3,14.8,7.2L-23.1-218.1z"/>
	</g>
	<g id="g238" transform="translate(68.5415,237.8423)">
		<path id="path240" inkscape:connector-curvature="0" class="st0" d="M-28.1-173.4c4.5,0,8.1,1.1,8.1,2.5c0,1.4-3.6,2.5-8.1,2.5
			c-4.5,0-8.1-1.1-8.1-2.5C-36.2-172.2-32.6-173.4-28.1-173.4"/>
	</g>
	<g id="g242" transform="translate(68.5415,237.8423)">
		<path id="path244" inkscape:connector-curvature="0" class="st1" d="M-28.1-173.4c4.5,0,8.1,1.1,8.1,2.5c0,1.4-3.6,2.5-8.1,2.5
			c-4.5,0-8.1-1.1-8.1-2.5C-36.2-172.2-32.6-173.4-28.1-173.4z"/>
	</g>
</g>
</svg>
