<?xml version="1.0" encoding="utf-8"?>
<!-- Generator: Adobe Illustrator 24.3.0, SVG Export Plug-In . SVG Version: 6.00 Build 0)  -->
<svg version="1.1"
	 id="svg5834" inkscape:version="0.91 r13725" sodipodi:docname="AS_unhappy.svg" xmlns:cc="http://creativecommons.org/ns#" xmlns:dc="http://purl.org/dc/elements/1.1/" xmlns:inkscape="http://www.inkscape.org/namespaces/inkscape" xmlns:rdf="http://www.w3.org/1999/02/22-rdf-syntax-ns#" xmlns:sodipodi="http://sodipodi.sourceforge.net/DTD/sodipodi-0.dtd" xmlns:svg="http://www.w3.org/2000/svg"
	 xmlns="http://www.w3.org/2000/svg" xmlns:xlink="http://www.w3.org/1999/xlink" x="0px" y="0px" viewBox="0 0 78 78"
	 style="enable-background:new 0 0 78 78;" xml:space="preserve">
<style type="text/css">
	.st0{fill:#C9C9C9;}
</style>
<sodipodi:namedview  bordercolor="#666666" borderopacity="1.0" id="base" inkscape:current-layer="layer1" inkscape:cx="86.433072" inkscape:cy="64.552902" inkscape:document-units="px" inkscape:pageopacity="0.0" inkscape:pageshadow="2" inkscape:window-height="768" inkscape:window-maximized="0" inkscape:window-width="1366" inkscape:window-x="0" inkscape:window-y="0" inkscape:zoom="3.959798" pagecolor="#ffffff" showgrid="false">
	</sodipodi:namedview>
<g id="layer1" transform="translate(0,-974.40945)" inkscape:groupmode="layer" inkscape:label="Layer 1">
	<g id="g5799" transform="matrix(1.25,0,0,-1.25,-45.702869,1123.2215)">
		<g id="g28" transform="translate(67.543,115.5605)">
			<path id="path30" inkscape:connector-curvature="0" class="st0" d="M0,0c-15.3,0-27.7-12.4-27.7-27.7C-27.7-43-15.3-55.4,0-55.4
				c15.3,0,27.7,12.4,27.7,27.7C27.7-12.4,15.3,0,0,0 M0-57.9c-16.6,0-30.2,13.5-30.2,30.2C-30.2-11-16.6,2.5,0,2.5
				S30.2-11,30.2-27.7C30.2-44.3,16.6-57.9,0-57.9"/>
		</g>
		<g id="g32" transform="translate(78.0273,68.2612)">
			<path id="path34" inkscape:connector-curvature="0" class="st0" d="M0,0c-4.3,6.9-10.6,6.7-13.1,6.2c-3.9-0.7-7.1-3.1-7.5-5.7
				l-4,0.5c0.6,4.2,5.1,7.8,10.7,8.8c7,1.2,13.4-1.8,17.3-8L0,0z"/>
		</g>
		<g id="g36" transform="translate(87.9814,99.373)">
			<path id="path38" inkscape:connector-curvature="0" class="st0" d="M0,0c-0.4,0-8.9,1.1-13.7,5.7l1.2,1.4C-8.1,2.9,0.1,2,0.2,1.9
				L0,0z"/>
		</g>
		<g id="g40" transform="translate(78.8887,99.7632)">
			<path id="path42" inkscape:connector-curvature="0" class="st0" d="M0,0c2.1,0,3.8-2.2,3.8-4.9c0-2.7-1.7-4.9-3.8-4.9
				s-3.8,2.2-3.8,4.9C-3.8-2.2-2.1,0,0,0"/>
		</g>
		<g id="g44" transform="translate(54.7217,99.7632)">
			<path id="path46" inkscape:connector-curvature="0" class="st0" d="M0,0c2.1,0,3.8-2.2,3.8-4.9c0-2.7-1.7-4.9-3.8-4.9
				s-3.8,2.2-3.8,4.9C-3.8-2.2-2.1,0,0,0"/>
		</g>
		<g id="g48" transform="translate(47.3945,98.8149)">
			<path id="path50" inkscape:connector-curvature="0" class="st0" d="M0,0l-0.7,1.9C3,3.1,9.3,5.7,10.5,7.5l1.7-1.1
				C10.2,3.4,1,0.3,0,0"/>
		</g>
	</g>
</g>
</svg>
