<?xml version="1.0" encoding="utf-8"?>
<!-- Generator: Adobe Illustrator 24.3.0, SVG Export Plug-In . SVG Version: 6.00 Build 0)  -->
<svg version="1.1"
	 id="svg5181" inkscape:version="0.91 r13725" sodipodi:docname="AS_wideawake.svg" xmlns:cc="http://creativecommons.org/ns#" xmlns:dc="http://purl.org/dc/elements/1.1/" xmlns:inkscape="http://www.inkscape.org/namespaces/inkscape" xmlns:rdf="http://www.w3.org/1999/02/22-rdf-syntax-ns#" xmlns:sodipodi="http://sodipodi.sourceforge.net/DTD/sodipodi-0.dtd" xmlns:svg="http://www.w3.org/2000/svg"
	 xmlns="http://www.w3.org/2000/svg" xmlns:xlink="http://www.w3.org/1999/xlink" x="0px" y="0px" viewBox="0 0 78 78"
	 style="enable-background:new 0 0 78 78;" xml:space="preserve">
<style type="text/css">
	.st0{fill:#C9C9C9;}
	.st1{fill:#505050;stroke:#C9C9C9;stroke-width:3.75;stroke-miterlimit:12.5;}
</style>
<sodipodi:namedview  bordercolor="#666666" borderopacity="1.0" id="base" inkscape:current-layer="layer1" inkscape:cx="114.03677" inkscape:cy="92.942125" inkscape:document-units="px" inkscape:pageopacity="0.0" inkscape:pageshadow="2" inkscape:window-height="768" inkscape:window-maximized="0" inkscape:window-width="1366" inkscape:window-x="0" inkscape:window-y="0" inkscape:zoom="2.8" pagecolor="#ffffff" showgrid="false">
	</sodipodi:namedview>
<g id="layer1" transform="translate(0,-974.40945)" inkscape:groupmode="layer" inkscape:label="Layer 1">
	<g id="g5138" transform="matrix(1.25,0,0,-1.25,-959.61506,1333.8517)">
		<g id="g138" transform="translate(798.9492,283.7422)">
			<path id="path140" inkscape:connector-curvature="0" class="st0" d="M0,0c-15.3,0-27.7-12.4-27.7-27.7C-27.7-43-15.3-55.4,0-55.4
				c15.3,0,27.7,12.4,27.7,27.7C27.7-12.4,15.3,0,0,0 M0-57.9c-16.6,0-30.2,13.5-30.2,30.2C-30.2-11-16.6,2.5,0,2.5
				S30.2-11,30.2-27.7C30.2-44.3,16.6-57.9,0-57.9"/>
		</g>
		<g id="g146" transform="translate(786.5791,272.2852)">
			<path id="path148" inkscape:connector-curvature="0" class="st0" d="M0,0c-4.3,0-7.8-3.5-7.8-7.8c0-4.3,3.5-7.8,7.8-7.8
				S7.8-12,7.8-7.8C7.8-3.5,4.3,0,0,0 M0-17c-5.1,0-9.3,4.2-9.3,9.3c0,5.1,4.2,9.3,9.3,9.3s9.3-4.2,9.3-9.3C9.3-12.9,5.1-17,0-17"/>
		</g>
		<g id="g150" transform="translate(786.5781,268.4766)">
			<path id="path152" inkscape:connector-curvature="0" class="st0" d="M0,0c2.2,0,4-1.8,4-3.9c0-2.2-1.8-4-4-4
				c-2.2,0-3.9,1.8-3.9,4C-3.9-1.8-2.2,0,0,0"/>
		</g>
		<g id="g154" transform="translate(785.9678,239.7197)">
			<path id="path156" inkscape:connector-curvature="0" class="st1" d="M0,0h24.3"/>
		</g>
		<g id="g162" transform="translate(811.2393,272.2852)">
			<path id="path164" inkscape:connector-curvature="0" class="st0" d="M0,0c-4.3,0-7.8-3.5-7.8-7.8c0-4.3,3.5-7.8,7.8-7.8
				S7.8-12,7.8-7.8C7.8-3.5,4.3,0,0,0 M0-17c-5.1,0-9.3,4.2-9.3,9.3c0,5.1,4.2,9.3,9.3,9.3s9.3-4.2,9.3-9.3C9.3-12.9,5.1-17,0-17"/>
		</g>
		<g id="g166" transform="translate(811.2383,268.4756)">
			<path id="path168" inkscape:connector-curvature="0" class="st0" d="M0,0c2.2,0,4-1.8,4-4c0-2.2-1.8-3.9-4-3.9
				c-2.2,0-3.9,1.8-3.9,3.9C-3.9-1.8-2.2,0,0,0"/>
		</g>
	</g>
</g>
</svg>
